Coordinates
version=1
nRows=4
nColumns=124
inDegrees=yes

Units are S.I. units (second, meters, Newtons, ...)
If the header above contains a line with 'inDegrees', this indicates whether rotational values are in degrees (yes) or radians (no).

endheader 
time	pelvis_tilt	pelvis_list	pelvis_rotation	pelvis_tx	pelvis_ty	pelvis_tz	hip_flexion_l	hip_adduction_l	hip_rotation_l	hip_flexion_r	hip_adduction_r	hip_rotation_r	knee_angle_l	knee_angle_r	ankle_angle_l	ankle_angle_r	subtalar_angle_l	subtalar_angle_r	mtp_angle_l	mtp_angle_r	lumbar_extension	lumbar_bending	lumbar_rotation	arm_flex_l	arm_add_l	arm_rot_l	arm_flex_r	arm_add_r	arm_rot_r	elbow_flex_l	elbow_flex_r	glut_med1_l/activation	glut_med2_l/activation	glut_med3_l/activation	glut_min1_l/activation	glut_min2_l/activation	glut_min3_l/activation	semimem_l/activation	semiten_l/activation	bifemlh_l/activation	bifemsh_l/activation	sar_l/activation	add_long_l/activation	add_brev_l/activation	add_mag1_l/activation	add_mag2_l/activation	add_mag3_l/activation	tfl_l/activation	pect_l/activation	grac_l/activation	glut_max1_l/activation	glut_max2_l/activation	glut_max3_l/activation	iliacus_l/activation	psoas_l/activation	quad_fem_l/activation	gem_l/activation	peri_l/activation	rect_fem_l/activation	vas_med_l/activation	vas_int_l/activation	vas_lat_l/activation	med_gas_l/activation	lat_gas_l/activation	soleus_l/activation	tib_post_l/activation	flex_dig_l/activation	flex_hal_l/activation	tib_ant_l/activation	per_brev_l/activation	per_long_l/activation	per_tert_l/activation	ext_dig_l/activation	ext_hal_l/activation	ercspn_l/activation	intobl_l/activation	extobl_l/activation	glut_med1_r/activation	glut_med2_r/activation	glut_med3_r/activation	glut_min1_r/activation	glut_min2_r/activation	glut_min3_r/activation	semimem_r/activation	semiten_r/activation	bifemlh_r/activation	bifemsh_r/activation	sar_r/activation	add_long_r/activation	add_brev_r/activation	add_mag1_r/activation	add_mag2_r/activation	add_mag3_r/activation	tfl_r/activation	pect_r/activation	grac_r/activation	glut_max1_r/activation	glut_max2_r/activation	glut_max3_r/activation	iliacus_r/activation	psoas_r/activation	quad_fem_r/activation	gem_r/activation	peri_r/activation	rect_fem_r/activation	vas_med_r/activation	vas_int_r/activation	vas_lat_r/activation	med_gas_r/activation	lat_gas_r/activation	soleus_r/activation	tib_post_r/activation	flex_dig_r/activation	flex_hal_r/activation	tib_ant_r/activation	per_brev_r/activation	per_long_r/activation	per_tert_r/activation	ext_dig_r/activation	ext_hal_r/activation	ercspn_r/activation	intobl_r/activation	extobl_r/activation	
          0.00000000	          4.08624091	        -12.27733638	          1.48248142	          0.00000000	          1.02923896	         -0.00808637	         -5.59475678	        -12.23292392	         -5.02915227	         -0.36780507	         16.43348169	         -6.80203092	        -15.52761372	          3.04050317	         20.00087341	         -7.51962143	         -9.70044773	         -6.84480334	          6.37950858	          0.00648683	        -10.29007356	          6.20690592	          8.38161966	         -2.06435512	        -13.62122596	         17.29273145	         22.18324065	        -13.72446983	         10.96066914	          7.12605110	         10.41693507	          0.49644659	          0.57867990	          0.62676650	          0.50324612	          0.54227371	          0.53862346	          0.05019544	          0.05018148	          0.16332244	          0.11693253	          0.63614502	          0.11742209	          0.28066555	          0.48073507	          0.46863634	          0.40387372	          0.81404221	          0.51504487	          0.31363552	          0.52230290	          0.50748233	          0.44468471	          0.93071882	          0.93511878	          0.79689618	          0.74180812	          0.59600678	          0.99884620	          0.79738924	          0.84335882	          0.11528837	          0.83845603	          0.61146702	          0.69001227	          0.73810786	          0.59819904	          0.62441490	          0.43234568	          0.43167574	          0.30817057	          0.43295646	          0.10391880	          0.38646663	          0.05084417	          0.05000146	          0.05000147	          0.61292214	          0.05043521	          0.19846166	          0.65631791	          0.53556782	          0.45056465	          0.05004861	          0.05020366	          0.34976989	          0.16199910	          0.57721677	          0.86825637	          0.58078845	          0.53014542	          0.52742034	          0.45999057	          0.79712569	          0.59012790	          0.42536787	          0.47927826	          0.45742640	          0.47671514	          0.86275783	          0.83942968	          0.24494128	          0.17690288	          0.07055096	          0.51594072	          0.23340219	          0.23681875	          0.23367126	          0.10248352	          0.31919188	          0.05010750	          0.23813563	          0.44681828	          0.36934139	          0.89748389	          0.26185761	          0.11054793	          0.67335905	          0.91346163	          0.86860206	          0.18671660	          0.32494395	          0.05045905	
          0.03031555	          4.26215746	        -11.07213239	          1.46293834	          0.02268061	          1.02299073	         -0.00988313	         -6.61997357	        -10.76278490	         -5.26790920	          0.98001157	         15.34417866	         -5.25208359	        -16.74964640	         -1.23478503	         21.40190426	         -4.87319715	        -10.93939709	        -10.56686824	          6.80311903	          1.63339185	         -9.79110609	          6.71683412	          7.75324740	         -1.61066891	        -13.46483508	         19.12857543	         16.83846314	        -13.48820785	         15.56375725	         14.32182319	          7.26722625	          0.42935777	          0.42499635	          0.58465248	          0.41120690	          0.46060598	          0.52032084	          0.19407877	          0.05037362	          0.24657237	          0.21388138	          0.64376586	          0.44799967	          0.45494698	          0.53225377	          0.51189771	          0.48340914	          0.54098340	          0.57277455	          0.45106501	          0.51897587	          0.50473786	          0.49688625	          0.85380096	          0.80731304	          0.93241941	          0.68414315	          0.56346390	          0.95209686	          0.75402771	          0.79937007	          0.10812618	          0.86841322	          0.61147083	          0.64132469	          0.74568711	          0.59662948	          0.61996221	          0.47072518	          0.42771248	          0.30145004	          0.45021204	          0.15282275	          0.40870901	          0.07065126	          0.05003352	          0.09275929	          0.42814598	          0.05029150	          0.25613033	          0.56608126	          0.47551263	          0.48537377	          0.05014502	          0.05032518	          0.32004744	          0.29474637	          0.75683947	          0.87346213	          0.58304773	          0.53186132	          0.52600447	          0.42116781	          0.73441458	          0.65685168	          0.54947021	          0.46430953	          0.42450316	          0.44724296	          0.88656970	          0.82738305	          0.21275471	          0.36414225	          0.40392940	          0.43800603	          0.15522908	          0.15745318	          0.15523757	          0.41382654	          0.51441366	          0.11931774	          0.36164314	          0.42536754	          0.39614714	          0.62489100	          0.41667846	          0.14775300	          0.56280946	          0.61520660	          0.61015134	          0.12404339	          0.22976068	          0.05013066	
          0.06063110	          4.33438300	        -10.30956538	          1.29265236	          0.04667523	          1.01783397	         -0.01140407	         -7.57412177	         -9.73852776	         -5.69266242	          1.56494597	         14.65392386	         -3.28762559	        -18.04919308	         -5.50395116	         22.39573374	         -0.95365270	        -12.29202923	        -13.17623103	          7.09138946	          4.80191119	         -9.11171242	          7.79445239	          7.02031614	         -2.12972383	        -13.46783828	         19.20023591	         10.09331670	        -13.47106119	         18.19985906	         23.74945946	          7.09463400	          0.37031155	          0.29511379	          0.49065459	          0.37975578	          0.39609980	          0.49425136	          0.36419944	          0.20399698	          0.37264021	          0.27845646	          0.50653283	          0.71102280	          0.75022293	          0.56905635	          0.53770481	          0.50258217	          0.43173575	          0.62307568	          0.59149967	          0.51650425	          0.50224031	          0.52628836	          0.80684846	          0.78380045	          0.93201629	          0.65134987	          0.55423247	          0.77314822	          0.62350227	          0.65752250	          0.10384867	          0.85158952	          0.60028902	          0.56567905	          0.79100676	          0.61753942	          0.62834023	          0.49278734	          0.39084457	          0.21679150	          0.48206479	          0.22774300	          0.45937766	          0.10634515	          0.05000138	          0.17804674	          0.73802204	          0.39704193	          0.40452027	          0.64152787	          0.60355718	          0.51879915	          0.05057045	          0.05062507	          0.35238405	          0.21558605	          0.65398078	          0.58041399	          0.38748664	          0.52897837	          0.52400823	          0.44292926	          0.76745764	          0.54125139	          0.40951903	          0.49260197	          0.46142082	          0.43989164	          0.82091923	          0.78553963	          0.14153428	          0.25182224	          0.29454700	          0.45050699	          0.10335620	          0.10478499	          0.10313154	          0.31157350	          0.45349603	          0.07926911	          0.50696976	          0.48564786	          0.45430649	          0.61506861	          0.38127034	          0.13965030	          0.53646830	          0.44374108	          0.56511977	          0.08241099	          0.17740142	          0.05003898	
          0.09094665	          4.33352858	         -9.76232522	          0.91659120	          0.07038897	          1.01489709	         -0.01231863	         -8.41984658	         -8.87877058	         -6.34731927	          1.87858327	         14.23509866	         -1.50338945	        -19.27282927	         -9.02314044	         22.48517049	          1.71829814	        -13.81161000	        -14.99584525	          7.23341176	          7.40250256	         -8.48528764	          9.03908715	          6.13823024	         -3.22761273	        -13.48682278	         18.10000408	          2.89710492	        -13.46872185	         18.90955450	         34.61219692	          8.37188362	          0.36289427	          0.28824569	          0.46264772	          0.40634798	          0.40854901	          0.48958636	          0.40903700	          0.28533328	          0.39774733	          0.30663988	          0.48601461	          0.86262783	          0.72771233	          0.56474581	          0.53620533	          0.52121398	          0.36453761	          0.60794195	          0.58572182	          0.52016623	          0.51000665	          0.52830784	          0.74910943	          0.72649509	          0.71300238	          0.55719064	          0.51842780	          0.51373423	          0.55048506	          0.56588880	          0.10169122	          0.85647697	          0.62973041	          0.54283163	          0.84303293	          0.64566235	          0.65531315	          0.48275140	          0.32055634	          0.14416439	          0.48922076	          0.25221005	          0.44599078	          0.10764990	          0.05000263	          0.11832215	          0.89310630	          0.40289275	          0.38008265	          0.67160888	          0.61865490	          0.51716005	          0.12022929	          0.07936416	          0.35796689	          0.14361929	          0.56663016	          0.50501287	          0.37018395	          0.52837403	          0.52381482	          0.47039531	          0.77291849	          0.54055037	          0.38854645	          0.49044888	          0.46040587	          0.43385964	          0.71229907	          0.70713784	          0.09409201	          0.16741706	          0.22718878	          0.47965135	          0.21082052	          0.20691157	          0.10868465	          0.25516550	          0.43772649	          0.05288396	          0.58356568	          0.50636266	          0.48492176	          0.60858139	          0.41616085	          0.18304320	          0.55270156	          0.39692821	          0.55282100	          0.05475227	          0.11790677	          0.05002178	
